<svg xmlns="http://www.w3.org/2000/svg" viewBox="0 0 21.7 3.19" role="img" aria-label="Victor">
  <path fill="#101721" d="M2.56,3.12L1.21.06h.7l1.16,2.76h-.22L4,.06h.69l-1.34,3.06h-.79Z"/>
  <path fill="#101721" d="M5.26.06h.63v3.06h-.63V.06Z"/>
  <path fill="#101721" d="M10.3,2.02c-.03.25-.12.46-.26.63-.14.17-.34.31-.59.4-.25.09-.55.14-.89.14-.29,0-.55-.03-.79-.1-.24-.07-.44-.17-.62-.3-.17-.13-.31-.3-.4-.49s-.14-.43-.14-.69.05-.5.14-.7.23-.36.4-.5.38-.23.62-.3.5-.1.79-.1c.34,0,.64.05.89.14s.45.23.59.4c.15.17.23.39.26.64h-.62c-.04-.13-.11-.25-.21-.34-.1-.1-.22-.17-.37-.22s-.33-.08-.54-.08c-.26,0-.49.04-.68.12-.2.08-.35.2-.45.35-.11.16-.16.35-.16.58s.05.42.16.57c.11.15.26.27.45.35.2.08.42.12.68.12.21,0,.39-.03.54-.08.15-.05.27-.12.37-.22.1-.09.17-.21.21-.33h.62Z"/>
  <path fill="#101721" d="M10.58.06h3.23v.53h-3.23V.06ZM11.88.52h.63v2.6h-.63V.52Z"/>
  <path fill="#101721" d="M15.88,3.19c-.41,0-.75-.06-1.04-.19-.29-.13-.51-.31-.66-.55s-.23-.52-.23-.85.08-.62.23-.86c.15-.24.37-.42.66-.55.29-.13.64-.19,1.04-.19s.76.06,1.05.19c.29.13.51.31.66.55.15.24.23.52.23.86s-.08.62-.23.85-.37.42-.66.55c-.29.13-.64.19-1.05.19ZM15.88,2.64c.25,0,.47-.04.67-.11.19-.08.34-.19.45-.35.11-.15.16-.35.16-.59s-.05-.43-.16-.59c-.11-.15-.26-.27-.45-.35-.19-.08-.41-.12-.67-.12s-.47.04-.67.12c-.2.08-.35.19-.46.35-.11.15-.17.35-.17.59s.05.43.17.59c.11.15.26.27.46.35.2.08.42.11.67.11Z"/>
  <path fill="#101721" d="M18.45,3.12V.06h2.08c.24,0,.44.03.62.1s.31.17.41.3.15.31.15.53c0,.15-.03.27-.08.37-.05.1-.12.18-.21.25s-.19.11-.31.14c-.12.03-.24.05-.37.06l-.07-.04c.22,0,.4.02.54.05.14.03.25.09.32.18.07.09.11.22.11.39v.73h-.63v-.69c0-.12-.02-.21-.06-.27-.04-.06-.11-.11-.22-.13-.11-.03-.26-.04-.46-.04h-1.19v1.13h-.63ZM19.08,1.5h1.45c.18,0,.31-.04.4-.13.09-.09.14-.2.14-.35s-.05-.24-.14-.32-.23-.11-.4-.11h-1.45v.9Z"/>
  <polygon fill="#209bb8" points="2.24 3.11 .67 .07 0 .07 2.24 3.11"/>
</svg>
