<svg xmlns="http://www.w3.org/2000/svg" viewBox="0 0 11.23 11.23" role="img" aria-label="Victor mark">
  <path fill="#fff" d="M5.72,8.31s0-.04-.02-.07l-.09-.15-.23-.37-.18-.28-.07-.11-.52-.84-.08-.11-.21-.34-.52-.82-.74-1.17s-.04-.07-.07-.1l-.52-.81-.4-.61h1.78s.03.03.04.05l.97,1.54.39.62.64,1.01.19.3.51-.79.67-1.03.19-.29h1.72s-.03.06-.05.09l-.29.44-.18.28-.91,1.37-.56.85-.95,1.43-.23.34-.18-.27s-.08-.09-.09-.14Z"/>
  <path fill="#209bb8" d="M2.98,3.94s.05.06.07.1l.74,1.17.52.82.21.34.08.11.52.84.07.11.18.28.23.37.09.15s.01.04.02.07l-.11-.13-.44-.56-.1-.13s-.05-.07-.08-.11l-.4-.52-.31-.4-.26-.33-.33-.43-.86-1.11-.15-.19-.22-.27-.1-.13s-.04-.04-.03-.07h.23s.19,0,.19,0c.08,0,.15.02.22,0Z"/>
</svg>
